<?xml version="1.0" encoding="utf-8"?>
<svg xmlns="http://www.w3.org/2000/svg" xmlns:xlink="http://www.w3.org/1999/xlink" style="margin: auto; background: rgb(255, 255, 255); display: block; shape-rendering: auto;" width="296px" height="296px" viewBox="0 0 100 100" preserveAspectRatio="xMidYMid">
<g transform="rotate(0 50 50)">
  <rect x="49.5" y="38.5" rx="0.5" ry="2.5" width="1" height="5" fill="#355c7d">
    <animate attributeName="opacity" values="1;0" keyTimes="0;1" dur="0.6024096385542168s" begin="-0.535475234270415s" repeatCount="indefinite"></animate>
  </rect>
</g><g transform="rotate(40 50 50)">
  <rect x="49.5" y="38.5" rx="0.5" ry="2.5" width="1" height="5" fill="#355c7d">
    <animate attributeName="opacity" values="1;0" keyTimes="0;1" dur="0.6024096385542168s" begin="-0.46854082998661306s" repeatCount="indefinite"></animate>
  </rect>
</g><g transform="rotate(80 50 50)">
  <rect x="49.5" y="38.5" rx="0.5" ry="2.5" width="1" height="5" fill="#355c7d">
    <animate attributeName="opacity" values="1;0" keyTimes="0;1" dur="0.6024096385542168s" begin="-0.4016064257028112s" repeatCount="indefinite"></animate>
  </rect>
</g><g transform="rotate(120 50 50)">
  <rect x="49.5" y="38.5" rx="0.5" ry="2.5" width="1" height="5" fill="#355c7d">
    <animate attributeName="opacity" values="1;0" keyTimes="0;1" dur="0.6024096385542168s" begin="-0.33467202141900937s" repeatCount="indefinite"></animate>
  </rect>
</g><g transform="rotate(160 50 50)">
  <rect x="49.5" y="38.5" rx="0.5" ry="2.5" width="1" height="5" fill="#355c7d">
    <animate attributeName="opacity" values="1;0" keyTimes="0;1" dur="0.6024096385542168s" begin="-0.2677376171352075s" repeatCount="indefinite"></animate>
  </rect>
</g><g transform="rotate(200 50 50)">
  <rect x="49.5" y="38.5" rx="0.5" ry="2.5" width="1" height="5" fill="#355c7d">
    <animate attributeName="opacity" values="1;0" keyTimes="0;1" dur="0.6024096385542168s" begin="-0.2008032128514056s" repeatCount="indefinite"></animate>
  </rect>
</g><g transform="rotate(240 50 50)">
  <rect x="49.5" y="38.5" rx="0.5" ry="2.5" width="1" height="5" fill="#355c7d">
    <animate attributeName="opacity" values="1;0" keyTimes="0;1" dur="0.6024096385542168s" begin="-0.13386880856760375s" repeatCount="indefinite"></animate>
  </rect>
</g><g transform="rotate(280 50 50)">
  <rect x="49.5" y="38.5" rx="0.5" ry="2.5" width="1" height="5" fill="#355c7d">
    <animate attributeName="opacity" values="1;0" keyTimes="0;1" dur="0.6024096385542168s" begin="-0.06693440428380187s" repeatCount="indefinite"></animate>
  </rect>
</g><g transform="rotate(320 50 50)">
  <rect x="49.5" y="38.5" rx="0.5" ry="2.5" width="1" height="5" fill="#355c7d">
    <animate attributeName="opacity" values="1;0" keyTimes="0;1" dur="0.6024096385542168s" begin="0s" repeatCount="indefinite"></animate>
  </rect>
</g>
<!-- [ldio] generated by https://loading.io/ --></svg>